<?xml version="1.0" encoding="utf-8"?>
<!DOCTYPE svg PUBLIC "-//W3C//DTD SVG 1.0//EN" "http://www.w3.org/TR/2001/REC-SVG-20010904/DTD/svg10.dtd">
<svg version="1.0" xmlns="http://www.w3.org/2000/svg" width="698px" height="578px" viewBox="0 0 698 578" preserveAspectRatio="xMidYMid meet">
 <g fill="#fdfbfb">
  <path d="M285.18 468.16 c0.62 -0.37 2.99 -1 5.24 -1.37 4.49 -0.81 15.39 -3.93 18.51 -5.36 1.06 -0.50 2.37 -0.87 2.87 -0.87 0.56 0 1.18 -0.25 1.37 -0.62 0.19 -0.31 1.06 -0.62 1.87 -0.62 0.81 0 1.62 -0.25 1.87 -0.56 0.19 -0.37 2.93 -1.87 6.11 -3.43 7.60 -3.74 13.52 -7.04 15.08 -8.41 0.69 -0.62 3.86 -2.87 7.04 -4.99 8.66 -5.73 25.80 -18.38 45.81 -33.90 10.35 -7.98 18.07 -15.58 19.13 -18.70 0.62 -1.99 0.56 -2.62 -0.44 -4.36 -1.56 -2.68 -5.86 -4.80 -9.66 -4.80 -2.93 0 -2.99 -0.06 -2.99 -1.93 0 -1.62 1 -2.99 5.86 -8.04 6.73 -7.10 10.97 -14.33 10.97 -18.95 0 -8.10 -8.85 -16.14 -20.88 -18.76 -5.80 -1.31 -18.14 -1 -23.99 0.62 -1.87 0.50 -4.36 0.93 -5.42 0.93 -1.93 0 -2.06 -0.12 -2.06 -2.12 0 -1.68 1.12 -3.61 5.80 -9.78 13.46 -17.95 15.02 -26.80 6.42 -35.96 -3.12 -3.30 -8.66 -6.48 -14.08 -7.98 -1.87 -0.50 -7.42 -1.12 -12.28 -1.31 l-8.91 -0.37 0 -2.06 c0 -1.75 0.93 -2.93 7.23 -9.10 24.74 -24.12 46.74 -53.91 50.42 -68.30 0.93 -3.49 0.93 -4.24 0.06 -7.17 -1.12 -3.93 -4.30 -7.23 -8.79 -9.29 -4.11 -1.87 -11.28 -1.87 -17.45 -0.06 -2.37 0.69 -5.17 1.50 -6.23 1.75 -1 0.19 -2.68 0.75 -3.74 1.18 -1 0.50 -3.93 1.62 -6.48 2.56 -5.48 2.06 -25.55 11.97 -28.92 14.27 -1.31 0.87 -2.56 1.62 -2.87 1.62 -0.25 0 -3.93 2.12 -8.23 4.74 -7.67 4.67 -9.85 6.11 -25.93 16.64 -6.79 4.49 -8.60 5.42 -10.59 5.36 l-2.37 0 -4.80 -9.78 c-12.78 -25.99 -28.36 -43.25 -43.81 -48.49 -8.73 -2.93 -15.14 -2.12 -22.81 2.99 -9.97 6.67 -17.33 20.94 -20.19 39.45 -0.81 5.24 -1 9.16 -0.75 16.83 0.50 15.14 3.24 28.73 9.85 48.42 4.30 12.90 4.36 12.65 -3.30 19.51 -19.88 17.82 -33.03 31.29 -36.96 37.70 -2.74 4.49 -5.05 11.47 -5.98 18.20 -0.69 4.61 -0.62 6.42 0.25 12.96 3.24 22.87 16.52 47.24 36.89 67.62 19.82 19.82 40.01 30.23 66.50 34.28 6.79 1.06 33.78 0.87 35.77 -0.19z m-249.97 -24.43 c2.87 -44.19 3.30 -48.55 5.92 -67.93 1.56 -11.09 3.24 -20.57 5.67 -32.41 8.35 -39.57 20.01 -66 42.44 -95.73 9.54 -12.78 29.67 -34.09 42.75 -45.43 3.18 -2.74 7.10 -6.17 8.79 -7.67 1.62 -1.43 3.86 -3.24 4.92 -4.05 1.06 -0.75 4.55 -3.55 7.79 -6.17 3.24 -2.68 6.17 -4.86 6.48 -4.86 0.31 0 2.37 -1.56 4.61 -3.49 4.67 -4.11 21.87 -15.83 23.18 -15.83 0.50 0 1.62 -0.56 2.49 -1.25 0.87 -0.69 1.81 -1.25 2.12 -1.31 0.25 0 2.06 -1.12 3.93 -2.43 1.87 -1.37 4.42 -3.12 5.61 -3.93 2.31 -1.56 12.96 -7.10 20.01 -10.35 2.31 -1.06 4.49 -2.31 4.86 -2.80 0.37 -0.44 5.67 -3.18 11.72 -5.98 9.60 -4.49 11.59 -5.24 15.27 -5.48 l4.24 -0.31 0 2.06 c0 1.12 -0.69 3.49 -1.50 5.24 -2.31 4.80 -3.49 10.03 -3.93 16.64 -1.50 24.06 15.39 42.75 41.13 45.43 8.10 0.81 13.84 0.31 19.76 -1.75 4.30 -1.50 5.55 -2.06 10.03 -4.61 3.49 -1.93 10.72 -8.97 13.40 -13.09 3.61 -5.42 6.48 -13.46 6.92 -19.44 0.44 -5.30 -0.75 -10.28 -3.80 -16.76 -1.18 -2.49 -3.05 -6.67 -4.11 -9.35 -3.05 -7.42 -10.03 -16.02 -15.27 -18.88 -1.81 -0.93 -2.18 -1.50 -2.18 -3.12 0 -1.06 0.37 -2.24 0.81 -2.62 0.87 -0.69 8.73 -2.43 14.96 -3.24 2.31 -0.31 4.67 -0.87 5.30 -1.18 0.56 -0.31 3.61 -0.87 6.67 -1.31 3.12 -0.37 7.60 -1 9.97 -1.31 2.43 -0.31 11.97 -0.93 21.19 -1.31 88.06 -4.11 148.39 10.84 191.76 47.55 42.19 35.71 52.72 92.55 26.92 145.21 -4.42 8.97 -9.47 17.45 -13.46 22.56 -1.50 1.81 -2.24 2.31 -3.93 2.31 -1.50 0 -2.12 -0.31 -2.37 -1.25 -0.31 -1.18 -0.87 -1.25 -9.10 -1.25 -7.04 0 -8.79 0.19 -8.79 0.87 0 0.56 1 0.93 2.80 1.12 4.55 0.56 4.67 0.81 4.67 9.91 0 5.48 -0.25 8.04 -0.69 8.04 -0.37 0 -2.68 1.50 -5.17 3.37 -6.11 4.55 -11.03 7.23 -13.34 7.23 l-1.99 0 0 -15.27 0 -15.27 -12.15 0 c-11.90 0 -12.28 -0.06 -13.65 -1.43 l-1.43 -1.43 -0.44 -32.41 c-0.19 -17.82 -0.19 -33.28 0 -34.34 0.56 -2.87 2.24 -4.05 6.29 -4.49 2.62 -0.25 3.61 -0.62 3.61 -1.31 0 -1.18 -6.36 -1.50 -19.38 -0.93 l-9.35 0.44 -5.80 17.82 c-3.18 9.85 -7.10 22 -8.73 27.11 l-2.87 9.22 -2.43 -0.19 -2.37 -0.19 -7.10 -19.63 c-3.93 -10.78 -8.23 -22.81 -9.66 -26.67 l-2.56 -6.98 -14.89 0 c-14.46 0 -14.89 0.06 -14.89 1.25 0 1.12 0.44 1.25 3.37 1.25 2.74 0 3.80 0.31 5.17 1.50 l1.75 1.50 0.19 33.90 0.12 33.90 -1.62 1.56 c-1.50 1.37 -2.12 1.50 -8.97 1.68 -10.91 0.31 -9.97 2.62 -9.97 -24.80 l0 -22.50 -9.78 0.19 c-6.48 0.12 -9.85 0.44 -9.97 0.87 -0.12 0.44 0.93 0.81 2.74 1.06 5.30 0.56 5.17 0.06 5.17 23.18 0 22.68 0.19 21.87 -4.92 22.56 -1.56 0.25 -2.56 0.69 -2.56 1.18 0 0.75 3.93 0.87 22.62 0.87 25.12 0 32.22 -0.37 32.22 -1.62 0 -0.50 -1.18 -1 -2.87 -1.25 -1.56 -0.19 -3.61 -1.06 -4.49 -1.81 l-1.68 -1.43 -0.19 -30.66 -0.19 -30.60 2.31 0.19 2.31 0.19 2.12 5.92 c1.12 3.24 4.74 13.21 7.98 22.12 3.24 8.91 7.67 21.13 9.85 27.11 l3.86 10.91 2.18 0 2.12 0 10.47 -31.78 c5.73 -17.45 10.47 -32.16 10.47 -32.53 0 -0.56 1 -0.81 2.80 -0.81 l2.80 0 0 29.85 c0 33.84 0.25 32.10 -4.99 32.97 -1.87 0.31 -2.80 0.81 -2.80 1.37 0 0.81 2.68 0.93 18.88 0.93 18.01 0 18.95 0.06 19.82 1.18 0.75 1.06 0.87 5.98 0.87 29.42 0 31.04 0.25 29.29 -3.99 29.98 -1.31 0.19 -2.24 0.69 -2.24 1.18 0 0.69 2.37 0.87 12.53 0.87 9.72 0 12.46 -0.19 12.28 -0.75 -0.19 -0.44 -1.43 -1.12 -2.87 -1.43 -4.67 -1.18 -4.80 -1.43 -4.99 -13.90 l-0.25 -11.09 3.24 -1.68 c1.81 -0.93 5.61 -3.24 8.48 -5.11 3.74 -2.43 5.92 -3.43 7.35 -3.43 l2.06 0 0.44 3.80 c0.19 2.12 0.37 9.22 0.37 15.83 0 11.16 -0.06 12.09 -1.31 13.65 -0.93 1.18 -1.87 1.62 -3.43 1.62 -1.75 0 -2.12 0.25 -2.12 1.31 0 1.31 0.19 1.37 3.80 0.93 2.12 -0.19 7.60 -0.37 12.15 -0.37 6.98 0 8.35 -0.12 8.35 -0.93 0 -0.56 -0.56 -0.93 -1.56 -0.93 -2.06 0 -4.49 -1.18 -5.05 -2.43 -0.19 -0.56 -0.50 -11.16 -0.69 -23.62 l-0.31 -22.56 3.43 -3.74 c7.60 -8.23 13.96 -17.70 20.57 -30.66 16.64 -32.66 20.01 -64.63 10.03 -95.16 -8.85 -27.11 -25.49 -48.61 -51.98 -67.18 -27.92 -19.57 -61.39 -31.72 -101.58 -36.89 -23.12 -2.99 -30.35 -3.43 -58.27 -3.43 -21.44 0 -28.67 0.19 -36.15 1.06 -22.12 2.56 -34.28 4.61 -49.67 8.29 -7.91 1.93 -9.22 2.37 -9.22 3.43 0 0.93 -0.44 1.18 -2.31 1.18 -3.74 0.06 -13.96 1.68 -16.76 2.68 -3.68 1.31 -6.48 2.87 -8.60 4.61 -1.50 1.25 -2.37 1.50 -4.36 1.31 -2.80 -0.31 -6.73 1 -22.68 7.67 -50.29 21 -99.65 53.53 -138.42 91.24 -32.22 31.41 -53.72 63.32 -66.31 98.47 -9.35 26.05 -17.26 66.56 -19.82 101.27 -1.50 20.44 -0.12 30.29 6.36 46.74 l3.37 8.41 0.12 -4.05 c0.12 -2.24 0.62 -10.66 1.12 -18.70z m422.41 -65 c3.37 -1.50 7.29 -4.92 7.29 -6.29 0 -0.31 -0.75 0.12 -1.68 1.06 -2.62 2.43 -5.86 3.55 -10.66 3.55 -10.66 0 -14.52 -6.92 -13.65 -24.31 0.50 -8.79 1.25 -11.53 3.86 -14.15 1.99 -1.99 2.24 -2.06 6.79 -2.06 5.36 0 5.98 0.50 5.98 4.99 0 1.87 0.37 2.93 1.56 4.05 1.81 1.81 2.37 1.87 4.67 0.50 4.24 -2.49 3.18 -6.54 -2.56 -9.78 -3.12 -1.81 -3.80 -1.93 -9.29 -1.93 -4.99 0.06 -6.48 0.31 -9.41 1.68 -10.16 4.67 -15.02 17.51 -11.22 29.85 2.18 6.98 6.17 11.28 12.59 13.71 4.61 1.68 10.91 1.37 15.70 -0.87z m34.65 0.50 c1.43 -0.50 3.30 -1.43 4.18 -2.12 l1.50 -1.18 -3.61 0.31 c-3.43 0.31 -3.80 0.19 -5.80 -1.56 -2.12 -1.87 -2.12 -1.93 -2.12 -7.42 0 -8.73 1.93 -10.72 10.91 -11.28 l5.61 -0.31 0 7.85 c0 7.73 0 7.79 -1.81 9.72 l-1.81 1.93 2.62 0 c1.99 0 2.99 0.37 4.11 1.56 2.12 2.24 5.48 2.99 9.72 2.24 1.87 -0.37 3.68 -0.81 4.05 -1 1 -0.69 -0.06 -1.56 -1.81 -1.56 -3.99 -0.06 -4.42 -1.99 -4.49 -18.38 0 -7.17 -0.31 -13.52 -0.69 -14.96 -1.06 -3.74 -5.11 -7.42 -9.60 -8.73 -7.73 -2.24 -18.82 0 -22 4.55 -1.75 2.37 -1.75 2.93 0.19 4.80 3.12 3.18 6.17 1.50 6.73 -3.68 0.12 -1.68 0.69 -3.24 1.12 -3.55 0.50 -0.31 2.99 -0.56 5.61 -0.56 4.24 0 4.86 0.12 6.23 1.62 1.37 1.43 1.50 2.18 1.68 8.66 l0.25 7.04 -3.68 0.37 c-11.53 1.18 -16.70 3.05 -20.38 7.29 -3.68 4.30 -3.99 8.66 -1.06 13.46 1.43 2.24 3.43 3.68 6.79 4.92 2.99 1.06 4.42 1.06 7.54 -0.06z m121.71 -2.24 c4.49 -1 8.23 -3.74 10.41 -7.54 2.18 -3.74 2.37 -5.73 0.93 -9.10 -1.93 -4.74 -5.42 -7.10 -15.39 -10.66 -2.99 -1.06 -6.05 -2.18 -6.67 -2.56 -3.80 -2.06 -4.18 -10.22 -0.69 -12.90 0.62 -0.50 3.18 -0.75 6.73 -0.81 5.42 0 5.80 0.06 6.98 1.62 0.75 0.93 1.31 2.18 1.31 2.87 0 1.81 1.18 3.61 2.31 3.61 1.43 0 3.93 -2.43 3.93 -3.80 0 -1.56 -3.37 -4.74 -6.05 -5.61 -1.56 -0.50 -4.49 -0.62 -9.10 -0.37 -6.05 0.31 -7.17 0.56 -9.72 2.12 -5.36 3.37 -7.85 9.72 -5.48 14.27 2.18 4.24 6.11 6.79 15.70 10.28 2.93 1.06 6.11 2.68 7.17 3.68 1.68 1.62 1.87 2.12 1.87 5.73 0 3.12 -0.25 4.30 -1.25 5.30 -1.87 1.99 -5.24 2.87 -10.10 2.56 -5.67 -0.44 -7.29 -1.62 -8.85 -6.48 -0.69 -1.99 -1.25 -3.80 -1.37 -3.86 -0.50 -0.69 -2.87 0.87 -3.68 2.43 -0.87 1.56 -0.87 2.06 -0.06 3.55 1.68 3.24 4.24 4.80 9.91 6.05 3.86 0.81 5.80 0.75 11.16 -0.37z m-199.62 -124.27 c2.43 -2.12 2.87 -3.61 1.56 -5.86 -1.62 -2.80 -4.24 -4.05 -6.67 -3.24 -5.48 1.93 -6.48 7.17 -1.81 9.66 2.49 1.37 4.80 1.18 6.92 -0.56z"/>
  <path d="M247.10 462.11 c-9.16 -1.50 -14.58 -2.80 -20.88 -5.11 -21.63 -7.98 -41.51 -24.12 -55.65 -45.25 -4.18 -6.23 -11.22 -20.75 -13.46 -27.80 -3.24 -9.91 -4.05 -15.39 -4.11 -27.48 0 -17.89 0.93 -19.76 19.38 -38.39 26.11 -26.30 64.38 -56.40 111.49 -87.62 33.47 -22.12 57.90 -35.52 76.28 -41.69 10.84 -3.61 22.25 -4.80 26.17 -2.74 3.05 1.56 3.99 6.67 2.31 12.34 -1.06 3.55 -5.80 11.90 -9.66 16.95 -8.41 11.16 -25.30 27.98 -42.75 42.75 -3.74 3.18 -8.41 7.17 -10.28 8.91 -1.93 1.75 -5.67 4.86 -8.35 6.92 -2.74 2.06 -6.92 5.48 -9.35 7.60 -2.43 2.18 -4.67 3.93 -4.92 3.93 -0.31 0 -1.56 0.81 -2.80 1.87 -1.25 1 -4.80 3.86 -7.91 6.36 -3.05 2.43 -7.10 5.86 -8.91 7.48 -1.87 1.62 -3.68 2.99 -4.11 2.99 -0.44 0 -2.74 1.75 -5.17 3.93 -2.43 2.12 -7.54 6.42 -11.34 9.47 -12.53 10.03 -28.29 24.43 -25.86 23.62 0.62 -0.19 7.35 -3.43 14.89 -7.10 19.76 -9.72 32.53 -17.64 49.86 -31.04 8.97 -6.98 20.44 -16.45 24.18 -20.01 l2.99 -2.87 12.28 0 c11.53 0.06 12.59 0.19 17.08 1.68 6.17 2.06 10.22 4.42 11.40 6.73 1.12 2.18 1.25 8.60 0.19 11.03 -4.55 10.35 -18.45 27.36 -41.57 50.85 -10.47 10.66 -23.50 22.68 -26.92 24.87 -2.68 1.75 -11.65 10.41 -13.09 12.71 -2.74 4.49 -1.18 3.68 15.95 -8.35 19.19 -13.52 25.30 -18.45 40.32 -32.66 l9.16 -8.66 7.35 -1.50 c13.77 -2.87 27.11 -2.74 35.46 0.37 3.80 1.43 8.48 5.24 9.97 8.10 1.12 2.24 1.12 9.29 0 12.03 -2.12 5.11 -11.78 13.34 -29.98 25.49 -24.43 16.39 -33.15 23.68 -40.32 33.78 -2.37 3.30 -4.36 7.10 -5.17 9.60 -0.50 1.68 5.73 -2.87 22.75 -16.76 11.28 -9.22 29.17 -23.18 32.59 -25.43 2.18 -1.43 2.93 -1.62 9.66 -1.62 l7.29 -0.06 0.19 2.43 c0.31 3.49 -0.12 4.74 -2.74 7.73 -2.56 3.05 -10.10 9.22 -13.27 10.91 -1.18 0.62 -4.36 2.74 -7.10 4.67 -2.68 1.93 -6.17 4.24 -7.67 5.11 -1.56 0.87 -4.55 2.87 -6.67 4.42 -2.12 1.56 -5.24 3.61 -6.86 4.55 -4.11 2.24 -12.09 7.67 -14.71 9.85 -1.12 1 -2.68 2.06 -3.43 2.37 -0.75 0.25 -3.18 1.87 -5.42 3.55 -2.18 1.62 -5.24 3.80 -6.79 4.80 -1.56 1 -4.05 2.87 -5.61 4.11 -4.92 4.05 -11.16 7.98 -14.65 9.29 -4.18 1.56 -13.77 3.99 -21.19 5.42 -7.85 1.43 -32.72 1.81 -40.51 0.56z"/>
  <path d="M197.93 284.06 c-2.87 -10.53 -6.73 -30.10 -7.85 -40.26 -1.06 -8.73 -0.50 -32.59 0.87 -38.45 1.50 -6.67 4.05 -13.96 6.11 -17.76 3.74 -6.79 5.80 -8.66 13.52 -12.09 2.37 -1.06 12.96 -0.75 16.58 0.50 10.84 3.86 23 16.27 32.66 33.53 3.74 6.61 10.03 21.25 10.03 23.31 0 1.81 -0.50 2.37 -5.05 5.67 -2.80 1.99 -5.86 4.05 -6.79 4.67 -3.30 1.93 -18.20 13.09 -30.41 22.62 -3.93 3.12 -8.48 6.54 -10.03 7.73 -1.56 1.18 -5.42 4.36 -8.60 7.04 -5.05 4.30 -6.05 4.86 -8.16 4.86 -2.06 0 -2.56 -0.25 -2.87 -1.37z"/>
 </g>
 <g fill="#e7e687">
  <path d="M36.02 476.63 c-2.68 -4.18 -10.53 -24.31 -12.40 -31.97 -5.86 -23.50 3.93 -95.60 18.57 -136.48 12.59 -35.15 34.09 -67.06 66.31 -98.47 27.48 -26.74 61.95 -52.10 96.41 -71.05 26.05 -14.27 69.80 -32.72 67.06 -28.29 -0.25 0.50 0 0.50 0.93 0 1.12 -0.62 1.31 -0.56 1.31 0.50 0 0.75 -1.25 2.12 -3.12 3.49 -3.55 2.62 -8.60 8.41 -11.03 12.84 -1.25 2.24 -2.12 3.05 -3.12 3.05 -1.06 0 -1.31 -0.25 -1 -1.06 0.37 -0.87 0.06 -0.93 -2.31 -0.56 -2.99 0.44 -23.81 9.97 -24.99 11.34 -0.37 0.50 -2.56 1.75 -4.86 2.80 -7.04 3.24 -17.70 8.79 -20.01 10.35 -1.18 0.81 -3.74 2.56 -5.61 3.93 -1.87 1.31 -3.68 2.43 -3.93 2.43 -0.31 0.06 -1.25 0.62 -2.12 1.31 -0.87 0.69 -1.99 1.25 -2.49 1.25 -1.31 0 -18.51 11.72 -23.18 15.83 -2.24 1.93 -4.30 3.49 -4.61 3.49 -0.31 0 -3.24 2.18 -6.48 4.86 -3.24 2.62 -6.73 5.42 -7.79 6.17 -1.06 0.81 -3.30 2.62 -4.92 4.05 -1.68 1.50 -5.61 4.92 -8.79 7.67 -13.09 11.34 -33.22 32.66 -42.75 45.43 -22.44 29.73 -34.09 56.15 -42.44 95.73 -4.92 23.50 -7.91 45.62 -9.66 71.36 -3.12 45.18 -3.12 45.81 -2.37 53.53 0.44 4.11 0.69 7.54 0.50 7.67 -0.12 0.12 -0.62 -0.44 -1.12 -1.18z"/>
  <path d="M544.81 347.01 c0.12 -5.36 0.44 -7.67 1 -7.85 0.44 -0.12 0.75 0.31 0.75 1.12 0 1.31 0.12 1.31 3.61 -0.62 1.93 -1.12 5.55 -3.55 7.98 -5.36 2.49 -1.87 4.80 -3.37 5.17 -3.37 0.37 0 0.69 -0.44 0.69 -0.93 0 -0.50 0.44 -0.93 0.93 -0.93 0.81 0 0.93 1.25 0.93 7.73 0 6.29 -0.19 7.79 -0.93 8.10 -0.62 0.25 -0.93 -0.06 -0.93 -0.87 0 -0.69 -0.12 -1.25 -0.31 -1.25 -0.12 0 -2.62 1.56 -5.55 3.43 -2.87 1.87 -6.67 4.18 -8.41 5.05 -1.75 0.93 -3.18 2.06 -3.18 2.49 0 0.50 -0.44 0.87 -0.93 0.87 -0.81 0 -0.93 -1.12 -0.81 -7.60z"/>
  <path d="M576.47 321.02 c0 -8.97 0.62 -11.90 1.75 -8.73 0.50 1.31 0.62 1.25 2.43 -1.06 4.05 -5.17 9.10 -13.59 13.52 -22.62 17.95 -36.65 18.38 -73.91 1.18 -106.57 -6.98 -13.34 -16.27 -24.87 -28.11 -34.90 -42.88 -36.27 -103.14 -51.54 -188.02 -47.55 -9.22 0.37 -18.76 1 -21.19 1.31 -2.37 0.31 -6.86 0.93 -9.97 1.31 -3.05 0.44 -6.11 1 -6.67 1.31 -0.62 0.31 -2.99 0.87 -5.30 1.18 -6.29 0.81 -14.08 2.56 -15.02 3.30 -0.69 0.50 -0.56 0.81 0.62 1.43 1.37 0.81 1.37 0.81 -0.81 0.87 -1.37 0 -4.36 -1 -7.48 -2.43 -4.11 -1.93 -12.71 -4.42 -15.21 -4.42 -0.19 0 -0.31 -0.25 -0.31 -0.62 0 -0.31 0.93 -0.62 2.06 -0.69 1.50 0 1.68 -0.12 0.87 -0.50 -1 -0.37 -1 -0.56 -0.31 -1.12 1.87 -1.56 28.61 -7.17 43.50 -9.16 22.19 -2.99 24.99 -3.12 54.53 -3.12 29.91 0 36.65 0.37 60.14 3.43 40.20 5.17 73.66 17.33 101.58 36.89 21.25 14.89 35.83 31.29 45.56 51.23 17.39 35.77 16.14 76.03 -3.61 114.92 -6.61 12.96 -15.52 26.05 -21.94 32.10 -1.06 1.06 -1.93 2.24 -1.93 2.68 0 0.44 -0.44 0.81 -0.93 0.81 -0.81 0 -0.93 -1.43 -0.93 -9.29z"/>
  <path d="M291.04 173.63 c0 -1.81 0.19 -5.05 0.37 -7.17 0.37 -3.05 0.62 -3.80 1.56 -3.80 0.62 0 1.43 -0.81 1.93 -1.87 0.69 -1.68 1.12 -1.87 3.43 -1.87 3.37 0 4.67 1.81 5.05 6.92 l0.25 3.68 -2.56 0 -2.56 0 0 2.74 c0 3.55 -1.18 4.74 -4.74 4.74 l-2.74 0 0 -3.37z"/>
  <path d="M318.90 167.83 c-0.87 -0.81 -0.37 -3.55 2.06 -10.66 2.74 -8.29 3.74 -13.40 3.74 -19.88 l0 -4.55 2.18 0 c2.87 0 3.05 1 2.62 12.09 -0.37 9.16 -1.37 13.34 -4.86 20.50 -1.25 2.56 -1.68 2.93 -3.37 2.93 -1.12 0 -2.18 -0.19 -2.37 -0.44z"/>
  <path d="M285.43 128.38 c0 -1.43 -0.25 -1.87 -1.25 -1.87 -1 0 -1.25 -0.44 -1.25 -2.06 0 -2.80 0.93 -3.55 4.49 -3.55 l2.99 0 0 3.30 c0 5.17 -0.44 6.05 -2.87 6.05 -1.93 0 -2.12 -0.19 -2.12 -1.87z"/>
 </g>
 <g fill="#eeee6c">
  <path d="M290.73 183.85 c-0.25 -2.43 -0.19 -4.67 0.06 -4.92 0.31 -0.19 3.05 -1.25 6.05 -2.18 5.98 -1.99 10.22 -5.05 11.65 -8.48 0.69 -1.68 0.62 -2.12 -0.81 -4.30 -2.06 -3.05 -5.98 -6.42 -11.16 -9.41 l-3.93 -2.24 0.06 -5.61 c0.12 -5.17 2.31 -23.37 3.12 -25.49 0.25 -0.62 1.31 -0.93 3.30 -1 l2.87 0 -3.12 -1 c-2.62 -0.81 -3.74 -0.87 -6.86 -0.19 -3.37 0.62 -11.53 3.05 -11.53 3.37 0 0.06 1.93 0 4.30 -0.12 l4.30 -0.25 0.44 4.55 c0.25 2.56 0.12 6.98 -0.25 9.91 -0.37 2.87 -0.69 6.42 -0.69 7.91 0 2.56 -0.06 2.62 -2.31 2.80 l-2.37 0.19 1.87 1 1.87 1.06 0 13.59 0 13.65 -2.80 0.37 -2.80 0.31 2.37 0.50 c3.43 0.75 4.18 1.81 4.18 5.73 l0 3.37 -3.12 0 c-9.29 0 -21.50 -12.22 -25.18 -25.05 -1.37 -4.67 -1.37 -17.33 -0.06 -21.13 1.37 -3.93 2.56 -4.92 5.61 -4.92 2.12 0 2.93 0.37 4.74 2.24 1.12 1.25 3.37 3.12 4.92 4.11 l2.80 1.93 -2.06 -1.93 c-2.49 -2.43 -3.24 -4.30 -3.24 -8.41 0 -3.55 1.43 -6.54 4.30 -9.04 0.87 -0.81 0.25 -0.56 -1.37 0.56 -1.68 1.18 -3.18 2.31 -3.30 2.56 -0.19 0.31 -1.43 0.50 -2.80 0.50 -2.31 0 -2.43 -0.06 -2.43 -2.06 0 -3.68 10.10 -12.15 18.07 -15.14 2.18 -0.87 5.05 -1.12 13.40 -1.12 l10.66 -0.06 4.61 2.31 c6.05 3.05 10.10 6.54 13.52 11.90 l2.74 4.24 -0.44 4.67 c-0.25 2.56 -0.62 4.61 -0.93 4.61 -0.25 0 -0.62 2.18 -0.75 4.86 l-0.19 4.80 -0.12 -5.61 c-0.19 -7.10 -1.37 -9.54 -1.37 -2.80 0 6.67 -0.93 11.78 -3.68 19.82 -1.31 3.86 -2.18 7.17 -1.93 7.29 0.44 0.25 3.55 -6.11 4.86 -9.97 0.37 -1 0.69 -1.56 0.69 -1.18 0.06 0.37 -0.75 3.12 -1.81 6.05 -1 2.99 -1.87 5.92 -1.87 6.54 0 2.93 -8.48 12.90 -14.33 16.95 -3.49 2.37 -4.30 2.56 -13.46 3.49 l-3.86 0.37 -0.44 -4.49z m-15.64 -13.71 c-0.50 -1.37 -1.18 -4.49 -1.56 -6.98 -0.81 -5.11 -1.43 -6.73 -2.74 -6.73 -2.68 0 -2.37 5.11 0.75 10.59 1.37 2.37 3.80 5.61 4.30 5.61 0.06 0 -0.31 -1.12 -0.75 -2.49z m43.19 -31.91 c1.99 -2.18 2.74 -4.05 2.31 -5.73 -0.37 -1.68 -4.99 -6.73 -7.17 -7.91 -1.43 -0.75 -1.43 -0.69 0.19 1.18 1.87 2.24 2.68 6.61 2.06 10.97 -0.50 3.30 0.44 3.86 2.62 1.50z m-29.79 -13.71 c0.06 -1.31 -0.25 -1.75 -1.12 -1.75 -0.62 0 -1.50 0.37 -1.87 0.87 -0.62 0.75 -0.50 0.81 0.50 0.56 1.12 -0.31 1.31 -0.06 1.37 2.06 0 1.93 0.12 2.18 0.56 1.18 0.31 -0.69 0.56 -1.99 0.56 -2.93z"/>
  <path d="M291.17 163.78 l0.19 -7.67 3.05 -0.19 c4.99 -0.31 7.29 2.87 5.05 7.10 -0.87 1.68 -0.93 1.68 -0.93 0.44 0 -0.81 0.31 -1.43 0.69 -1.43 0.31 0 0.44 -0.25 0.25 -0.62 -0.75 -1.18 -1.87 -0.62 -2.74 1.43 -1.37 3.18 -2.12 3.86 -2.62 2.49 -0.37 -0.81 -0.50 -0.50 -0.50 1.06 -0.12 3.18 -0.69 4.99 -1.68 4.99 -0.75 0 -0.87 -1.37 -0.75 -7.60z"/>
  <path d="M327.31 149.57 c0 -1.18 0.12 -1.68 0.31 -1.06 0.12 0.56 0.12 1.56 0 2.18 -0.19 0.56 -0.31 0.06 -0.31 -1.12z"/>
 </g>
 <g fill="#a0a7c5">
  <path d="M352.86 378.67 c-6.29 -7.17 -6.61 -7.73 -5.73 -8.79 0.44 -0.50 1.12 -0.93 1.50 -0.93 0.37 0 2.80 2.43 5.36 5.42 6.48 7.48 6.48 7.54 5.61 8.60 -0.44 0.50 -1.12 0.93 -1.50 0.93 -0.37 -0.06 -2.74 -2.37 -5.24 -5.24z"/>
  <path d="M552.17 377.29 c0 -2.37 0.19 -2.80 1.12 -2.62 0.75 0.12 1.12 0.93 1.25 2.87 0.19 2.31 0.06 2.62 -1.06 2.62 -1.12 0 -1.31 -0.37 -1.31 -2.87z"/>
  <path d="M532.22 348.38 c0 -7.04 0.06 -7.48 1.25 -7.48 1.18 0 1.25 0.44 1.25 7.48 0 7.04 -0.06 7.48 -1.25 7.48 -1.18 0 -1.25 -0.44 -1.25 -7.48z"/>
  <path d="M576.47 336.54 c0 -3.43 0.19 -4.36 0.93 -4.36 0.50 0 1.06 0.87 1.31 2.18 0.56 2.93 -0.19 6.54 -1.31 6.54 -0.75 0 -0.93 -0.93 -0.93 -4.36z"/>
  <path d="M317.59 330.49 c-3.30 -3.68 -5.98 -6.98 -5.98 -7.42 0 -0.44 0.62 -1 1.37 -1.25 1.18 -0.37 2.12 0.37 5.98 4.49 7.10 7.67 7.91 8.79 6.98 9.91 -0.44 0.50 -1.12 0.93 -1.56 0.93 -0.44 0 -3.49 -2.99 -6.79 -6.67z"/>
  <path d="M288.36 277.89 c-0.93 -0.69 -3.93 -4.05 -6.67 -7.54 -3.99 -4.92 -4.86 -6.42 -4.30 -7.10 1.18 -1.50 2.74 -1 4.74 1.50 1.06 1.25 3.86 4.49 6.36 7.23 4.24 4.67 4.42 4.99 3.43 6.05 -1.31 1.50 -1.56 1.50 -3.55 -0.12z"/>
 </g>
 <g fill="#b8bc87">
  <path d="M306.62 183.47 c0 -0.19 1.93 -2.18 4.24 -4.36 6.61 -6.11 11.84 -14.15 14.89 -23 1.25 -3.49 1.62 -6.11 1.87 -13.27 0.37 -9.41 0.25 -9.16 3.74 -8.48 1.43 0.25 2.18 1 3.18 3.12 1.25 2.49 1.37 3.80 1.37 11.97 0 7.85 -0.25 9.78 -1.43 13.27 -1.43 4.24 -4.55 9.85 -7.35 13.21 -1.56 1.81 -1.99 1.99 -5.48 2.06 -2.99 0.06 -4.11 0.31 -5.24 1.37 -0.81 0.75 -1.75 1.37 -2.06 1.37 -0.37 0 -1.31 0.69 -2.12 1.56 -1 1.06 -2.12 1.56 -3.55 1.56 -1.12 0 -2.06 -0.19 -2.06 -0.37z"/>
  <path d="M295.28 174.50 c1 -0.93 1.25 -1.68 1 -3.12 -0.25 -1.25 0 -2.43 0.93 -3.93 0.69 -1.18 1.31 -2.87 1.31 -3.80 0 -2.49 0.93 -1.93 2.06 1.37 0.93 2.56 1 2.62 0.75 -0.19 -1.18 -0.87 -2.93 -1.56 -3.86 l-1.31 -1.75 1.50 0 c1.18 0 1.62 0.50 2.18 2.43 0.44 1.31 0.75 3.80 0.75 5.55 0 2.68 -0.31 3.55 -1.93 5.42 -1.62 1.81 -2.37 2.18 -4.49 2.18 l-2.56 0 1.37 -1.25z"/>
  <path d="M291.04 161.10 l0 -4.05 2.37 0.06 c1.93 0 2.12 0.12 0.93 0.56 -0.93 0.37 -1.25 0.93 -1 1.81 0.50 2.06 -0.37 5.67 -1.37 5.67 -0.75 0 -0.93 -0.93 -0.93 -4.05z"/>
 </g>
 <g fill="#a1a78d">
  <path d="M291.85 190.33 c-0.44 -0.19 -0.81 -0.75 -0.81 -1.25 0 -0.62 -0.87 -0.87 -3.12 -0.87 -2.93 0 -3.12 -0.12 -3.12 -1.56 0 -1 0.37 -1.56 0.93 -1.56 1.12 0 1.25 -1.99 0.25 -3.80 -0.62 -1.18 -0.50 -1.25 2.37 -1.06 2.93 0.19 2.99 0.25 3.18 2.31 0.31 3.37 1.56 4.18 4.86 3.30 1.50 -0.44 3.61 -0.75 4.67 -0.75 1.12 0 3.05 -0.81 4.67 -1.87 1.50 -1.06 2.74 -1.75 2.74 -1.43 0 0.25 1.18 -0.69 2.56 -1.99 1.43 -1.37 2.37 -2.06 2.12 -1.56 -0.25 0.50 0.31 0.19 1.31 -0.75 1 -0.93 2.62 -2.12 3.68 -2.62 1.75 -0.93 1.87 -0.87 2.31 0.31 0.56 1.43 2.43 1.18 4.42 -0.56 1 -0.87 1.06 -0.81 1.06 1.18 0 2.80 -3.86 6.67 -11.22 11.22 l-5.30 3.30 -8.41 0.19 c-4.61 0.06 -8.79 0 -9.16 -0.19z"/>
  <path d="M333.92 150.44 c0.25 -7.17 0.19 -8.10 -1.12 -10.84 -1.06 -2.24 -1.81 -3.05 -3.12 -3.30 -1.12 -0.25 -1.87 -0.87 -2.12 -1.81 -0.56 -2.24 -0.44 -4.24 0.31 -4.24 0.50 0 0.50 -0.31 -0.06 -0.93 -0.69 -0.81 -0.50 -0.93 1.31 -0.93 2.49 0 2.93 0.56 5.55 7.17 1.75 4.30 1.87 5.30 1.87 12.34 0 8.66 -0.31 10.41 -1.87 10.41 -1 0 -1.06 -0.69 -0.75 -7.85z"/>
 </g>
 <g fill="#506098">
  <path d="M288.86 190.70 c-10.53 -2.43 -15.21 -4.86 -21 -11.16 -6.11 -6.61 -9.16 -14.77 -9.66 -25.86 -0.44 -8.35 0.37 -14.21 2.74 -20.07 1.25 -3.18 2.24 -4.49 6.29 -7.98 2.68 -2.31 5.80 -4.80 6.98 -5.48 1.81 -1.12 1.56 -0.69 -1.56 2.49 -2.06 2.12 -3.49 3.86 -3.24 3.86 0.25 0 1.93 -1.06 3.74 -2.43 3.93 -2.93 5.92 -3.93 10.41 -5.24 6.42 -1.93 8.41 -2.31 11.40 -2.31 3.68 0 13.21 2.62 17.82 4.86 3.68 1.81 8.54 6.29 9.47 8.66 2.12 5.61 -2.06 12.78 -6.86 11.72 -2.56 -0.56 -2.74 -1 -1.99 -4.86 1.18 -6.36 -1 -10.41 -7.10 -13.27 -3.61 -1.68 -8.10 -1.99 -8.66 -0.56 -0.56 1.56 -2.87 19.07 -3.05 23.31 l-0.12 3.99 3.80 2.24 c8.29 4.80 12.71 9.66 12.71 13.90 0 5.42 -4.11 9.41 -12.65 12.22 -3.18 1.06 -5.73 2.24 -5.67 2.56 0.06 0.37 0.12 1.68 0.19 2.87 0.06 1.62 0.37 2.18 1.18 2.18 0.93 0.06 0.93 0.12 -0.12 0.69 -1.93 1.12 0 1.81 5.42 1.81 4.24 0 4.80 0.12 4.80 1.18 0 2.18 -7.23 2.49 -15.27 0.69z m0.62 -6.54 c0 -2.87 -1.93 -2.87 -2.31 0 -0.25 1.99 -0.12 2.24 1 2.06 1 -0.12 1.31 -0.62 1.31 -2.06z m-2.80 -0.56 c0 -1.75 -1.50 -3.49 -2.99 -3.49 -2.06 -0.06 -6.36 -2.49 -9.35 -5.24 -3.80 -3.55 -6.92 -9.54 -7.42 -14.15 -0.50 -4.86 0.31 -6.17 3.86 -6.17 3.30 0 3.68 0.50 4.61 6.54 1.31 8.54 2.99 11.78 6.92 13.40 3.55 1.50 3.61 1.25 3.37 -11.59 l-0.19 -11.72 -4.74 -2.68 c-6.36 -3.55 -8.16 -4.86 -11.72 -8.23 -3.43 -3.30 -4.30 -3.18 -6.36 0.93 -1.75 3.43 -2.06 13.27 -0.62 18.57 2.62 9.41 10.28 19.32 18.07 23.31 4.74 2.43 6.54 2.56 6.54 0.50z m8.91 -9.16 c4.30 -2.24 6.67 -6.54 5.48 -10.10 -0.93 -2.68 -5.17 -6.86 -6.67 -6.54 -1.06 0.19 -1.18 1 -1.37 8.79 -0.19 8.91 -0.06 9.22 2.56 7.85z m-8.91 -31.85 c0 -1.50 0.44 -6.17 0.93 -10.47 0.50 -4.30 0.93 -8.16 0.93 -8.54 0 -0.93 -2.24 -1.12 -2.80 -0.25 -0.19 0.31 -1.12 0.75 -2.12 1 -3.93 0.87 -8.79 6.17 -8.79 9.66 0 2.62 1.99 5.42 5.92 8.35 4.86 3.68 5.92 3.74 5.92 0.25z"/>
  <path d="M315.53 186.03 c-1.25 -1.37 -1 -1.99 1.31 -3.37 3.99 -2.49 10.59 -10.66 13.96 -17.26 3.61 -7.10 5.11 -20.38 2.93 -25.61 -0.56 -1.25 -0.81 -2.68 -0.69 -3.12 0.50 -1.18 3.99 -1 5.42 0.37 2.74 2.56 3.18 21.94 0.62 28.73 -0.69 1.93 -2.56 5.42 -4.11 7.73 -1.56 2.37 -2.80 4.49 -2.80 4.67 0 0.69 -5.11 5.42 -7.79 7.17 -2.80 1.81 -7.54 2.24 -8.85 0.69z"/>
  <path d="M330.55 132.18 c-0.62 -1.06 -1.37 -1.93 -1.62 -1.93 -0.31 0 -1.56 -1.62 -2.74 -3.55 -1.25 -1.99 -2.87 -4.24 -3.55 -4.99 -1.50 -1.62 -1.56 -1.56 1.93 -2.87 4.55 -1.81 6.48 -1.43 8.66 1.62 2.37 3.30 4.55 7.54 4.55 8.91 0 0.93 -2.93 3.99 -3.86 3.99 -0.19 0 -0.81 0.19 -1.31 0.37 -0.62 0.19 -1.37 -0.37 -2.06 -1.56z"/>
 </g>
 <g fill="#49508f">
  <path d="M328.43 429.08 c0 -2.68 1.93 -7.91 4.36 -11.72 1.68 -2.62 2.06 -2.93 4.18 -2.93 1.31 0 3.68 0.62 5.30 1.37 4.67 2.24 4.24 3.18 -4.49 9.78 -4.11 3.12 -7.91 5.67 -8.41 5.67 -0.62 0 -0.93 -0.69 -0.93 -2.18z"/>
  <path d="M230.59 344.39 c0 -1.06 2.74 -4.05 11.09 -11.78 6.05 -5.73 11.97 -11.03 13.03 -11.78 3.05 -2.12 13.65 -10.91 18.20 -14.96 2.18 -1.99 4.36 -3.61 4.80 -3.61 0.44 0 2.24 -1.37 4.11 -2.99 1.81 -1.62 5.86 -5.05 8.91 -7.48 3.12 -2.49 6.67 -5.36 7.91 -6.36 1.25 -1.06 2.49 -1.87 2.80 -1.87 0.25 0 2.49 -1.75 4.92 -3.93 2.43 -2.12 6.61 -5.55 9.29 -7.60 2.68 -2.06 7.04 -5.67 9.60 -7.98 2.62 -2.37 7.10 -6.17 9.97 -8.41 2.87 -2.31 6.98 -5.80 9.04 -7.79 3.68 -3.55 3.86 -3.68 6.61 -3.30 2.43 0.31 12.53 1.43 13.90 1.56 2.49 0.25 -4.74 9.04 -17.89 21.75 -3.61 3.55 -6.61 6.54 -6.61 6.73 0 0.12 2.87 0.25 6.42 0.31 3.49 0 7.79 0.25 9.47 0.44 l3.12 0.44 0.19 3.99 0.19 3.99 -2.68 -0.37 c-1.50 -0.19 -4.61 -0.69 -7.04 -1.12 -2.56 -0.44 -7.42 -0.56 -11.72 -0.44 l-7.35 0.31 -2.93 2.80 c-10.78 10.22 -35.90 29.35 -50.29 38.20 -12.09 7.48 -43.06 22.75 -46.12 22.75 -0.56 0 -0.93 -0.56 -0.93 -1.50z"/>
  <path d="M290.79 197.56 c-12.34 -1.43 -24.55 -7.85 -31.29 -16.52 -3.37 -4.36 -6.17 -10.03 -6.79 -14.02 -0.25 -1.56 -0.75 -3.12 -1.06 -3.55 -0.31 -0.44 -0.62 -5.17 -0.69 -10.59 -0.12 -9.91 0.12 -11.40 2.87 -19.19 2.62 -7.42 12.15 -19.76 17.57 -22.68 1.37 -0.75 3.43 -2.06 4.55 -2.87 6.36 -4.55 23.31 -7.29 31.72 -5.05 6.73 1.81 15.77 6.79 20.13 11.16 4.30 4.24 7.79 9.41 9.97 14.58 1.06 2.68 2.93 6.86 4.05 9.22 3.37 7.17 3.61 8.48 2.80 13.27 -0.62 3.55 -1 9.35 -1.18 16.39 -0.06 2.56 -1.87 6.23 -4.11 8.54 -1.12 1.18 -2.18 2.93 -2.43 3.86 -0.31 1.87 -7.85 9.10 -11.65 11.22 -8.35 4.74 -13.21 6.17 -21.94 6.48 -4.18 0.19 -9.85 0.06 -12.53 -0.25z m12.09 -8.54 c3.80 -0.75 6.42 -1.68 9.16 -3.37 2.49 -1.50 4.24 -2.24 5.11 -1.99 0.69 0.19 1.12 0.56 0.93 0.87 -0.69 1.18 2.06 0.50 4.42 -1.06 2.68 -1.75 7.79 -6.48 7.79 -7.17 0 -0.19 1.25 -2.31 2.80 -4.67 5.30 -7.98 6.67 -14.58 5.36 -25.74 -0.69 -6.36 -1.93 -8.60 -3.99 -7.42 -1.12 0.62 -1.25 0.44 -3.30 -5.36 -0.50 -1.31 -0.87 -2.49 -0.87 -2.62 0 -0.37 1.56 0 1.87 0.50 0.19 0.25 1.12 -0.25 2.12 -1.06 1.31 -1.12 1.62 -1.81 1.31 -2.93 -0.62 -1.93 -3.18 -5.30 -4.92 -6.48 -1.31 -0.81 -1.75 -0.81 -4.49 0.25 l-3.05 1.25 -3.12 -2.80 c-1.68 -1.50 -5.24 -3.80 -7.79 -5.05 l-4.61 -2.31 -8.79 0.06 c-9.66 0.06 -11.65 0.56 -18.07 4.42 -3.93 2.37 -11.65 9.41 -11.16 10.22 0.12 0.25 -1 1.50 -2.49 2.74 -1.99 1.62 -3.18 3.30 -4.30 6.11 -6.92 17.51 -1.06 38.39 13.46 47.99 3.68 2.43 7.23 3.80 14.46 5.42 6.29 1.43 5.86 1.43 12.15 0.19z"/>
  <path d="M314.10 139.48 c0 -1.18 0.06 -1.25 0.81 -0.37 0.37 0.56 1.31 1.12 1.99 1.31 0.81 0.19 0.50 0.31 -0.75 0.37 -1.75 0.06 -2.06 -0.19 -2.06 -1.31z"/>
 </g>
 <g fill="#424181">
  <path d="M247.54 470.22 c-14.15 -2.18 -24.87 -5.67 -37.46 -12.15 -18.51 -9.60 -38.83 -29.48 -50.98 -49.98 -5.73 -9.60 -7.91 -14.33 -11.03 -23.56 -7.42 -22.31 -5.86 -41.13 4.49 -54.97 3.18 -4.30 19.32 -20.57 27.23 -27.48 2.74 -2.37 6.92 -6.17 9.22 -8.41 l4.30 -4.11 -3.49 -10.59 c-7.10 -21.75 -9.10 -32.22 -9.54 -49.36 -0.25 -9.29 -0.12 -13.34 0.75 -18.63 3.55 -22.62 13.46 -38.27 27.23 -43.13 5.11 -1.75 13.21 -1.50 19.51 0.69 15.52 5.30 31.10 22.50 43.81 48.49 2.62 5.36 5.05 9.78 5.30 9.78 0.31 0.06 4.24 -2.37 8.73 -5.36 16.08 -10.53 18.26 -11.97 25.93 -16.64 4.30 -2.62 7.98 -4.74 8.23 -4.74 0.31 0 1.56 -0.75 2.87 -1.62 3.37 -2.31 23.43 -12.22 28.92 -14.27 2.56 -0.93 5.48 -2.06 6.48 -2.56 1.06 -0.44 2.74 -1 3.74 -1.18 1.06 -0.25 3.86 -1.06 6.23 -1.75 6.42 -1.93 16.89 -1.93 21.19 0.06 6.17 2.80 9.66 8.04 9.66 14.46 0 9.78 -9.97 27.05 -27.98 48.55 -9.85 11.72 -9.22 11.03 -9.22 9.66 0 -0.62 0.44 -1.75 1 -2.37 0.93 -1.12 0.93 -1.18 -0.37 -0.87 -0.81 0.25 -1.43 0.19 -1.43 -0.06 0 -0.25 -1.68 -0.37 -3.68 -0.25 -2.18 0.12 -3.86 0 -4.11 -0.37 -0.19 -0.37 -0.69 -0.69 -1 -0.69 -0.37 0 -0.44 0.31 -0.25 0.62 0.19 0.31 0.06 0.62 -0.25 0.62 -0.37 0 -0.69 -0.37 -0.69 -0.81 0 -0.44 -0.56 -0.81 -1.18 -0.81 -0.69 0 -1.06 0.25 -0.87 0.56 0.19 0.31 -0.25 0.69 -1 0.87 -0.69 0.19 -1.18 0.56 -1 0.81 0.50 0.75 -4.55 4.99 -7.35 6.17 -1.43 0.62 -3.05 1.62 -3.55 2.24 -1.31 1.62 -7.98 6.61 -8.54 6.42 -0.25 -0.12 -1.75 1.06 -3.18 2.62 -2.62 2.68 -2.62 2.68 -0.93 0.44 0.93 -1.31 5.42 -5.48 9.85 -9.29 19.01 -16.14 35.34 -32.34 44.06 -43.81 3.74 -4.99 8.97 -14.27 9.85 -17.64 1 -3.80 -0.06 -6.73 -2.87 -8.10 -4.99 -2.37 -20.50 1.37 -37.08 8.91 -33.15 15.08 -95.97 57.02 -139.54 93.17 -19.07 15.77 -41.01 36.77 -47.18 45.12 -4.24 5.80 -5.48 10.59 -5.42 21.56 0.06 14.52 2.68 24.87 10.22 40.20 6.98 14.21 13.84 23.50 25.55 34.78 15.21 14.65 33.28 24.12 53.28 27.98 6.42 1.25 9.41 1.43 21.50 1.43 14.83 -0.06 19.07 -0.56 31.97 -3.80 10.72 -2.68 15.64 -5.17 24.12 -12.09 1.56 -1.25 4.05 -3.12 5.61 -4.11 1.56 -1 4.61 -3.18 6.79 -4.80 2.24 -1.68 4.67 -3.30 5.42 -3.55 0.75 -0.31 2.31 -1.37 3.43 -2.37 2.62 -2.18 10.59 -7.60 14.71 -9.85 1.62 -0.93 4.74 -2.99 6.86 -4.55 2.12 -1.56 5.11 -3.55 6.67 -4.42 1.50 -0.87 4.99 -3.18 7.67 -5.11 2.74 -1.93 5.92 -4.05 7.10 -4.67 2.99 -1.56 10.47 -7.67 12.96 -10.47 2.49 -2.93 3.49 -4.92 2.93 -6.29 -0.62 -1.68 -10.35 -0.81 -13.40 1.18 -3.24 2.18 -21.50 16.39 -30.91 24.12 -14.71 12.03 -19.44 15.58 -19.38 14.33 0.06 -0.62 1.25 -2.06 2.74 -3.12 l2.74 -1.93 -2.43 -1.25 c-3.80 -1.99 -6.23 -1.93 -5.86 0.25 0 0.25 -0.19 0.44 -0.50 0.44 -0.31 0 -0.81 0.56 -1 1.25 -0.19 0.69 -0.81 1.25 -1.31 1.25 -0.50 0 -0.87 0.31 -0.87 0.62 0 0.37 -0.25 0.62 -0.62 0.62 -1.06 0 -0.75 -0.81 1.75 -4.86 6.73 -11.09 16.08 -19.19 42.19 -36.71 18.20 -12.15 27.86 -20.38 29.98 -25.49 3.49 -8.41 -4.18 -16.27 -18.01 -18.38 -5.73 -0.87 -14.58 -0.25 -23.87 1.62 l-7.17 1.50 -9.16 8.66 c-11.16 10.53 -16.58 15.27 -24.74 21.38 -7.85 5.92 -27.17 19.51 -30.66 21.56 -5.48 3.18 -8.16 0.44 -4.92 -5.05 1.56 -2.68 10.35 -11.40 13.40 -13.34 3.43 -2.18 16.45 -14.21 26.92 -24.87 20.01 -20.38 31.78 -34.15 38.39 -45.06 4.36 -7.29 4.92 -9.91 2.74 -13.46 -1.93 -3.18 -10.16 -6.67 -18.95 -8.04 -1.31 -0.19 -2.18 -0.62 -1.99 -0.93 0.37 -0.62 2.49 -0.50 7.98 0.31 l2.99 0.50 -0.19 -2.12 c-0.19 -2.24 -0.93 -2.62 -7.35 -3.55 -4.49 -0.69 -1.75 -1.56 3.30 -1.12 6.42 0.62 9.47 1.50 14.58 3.93 10.16 4.92 14.77 13.90 12.40 24.12 -1.37 5.86 -4.61 11.78 -11.47 20.88 -3.18 4.24 -5.67 7.79 -5.55 7.91 0.06 0.12 1.68 -0.25 3.55 -0.75 1.93 -0.50 7.60 -1.06 13.15 -1.31 7.98 -0.31 10.53 -0.19 14.65 0.75 9.16 1.99 16.14 6.73 19.26 12.96 1.25 2.49 1.56 4.11 1.56 7.67 0 6.67 -3.18 12.65 -11.03 20.88 l-5.92 6.17 2.99 0 c6.29 0.06 10.84 3.80 10.84 8.97 0 6.73 -4.67 11.34 -34.28 33.78 -13.84 10.47 -24.87 18.51 -31.29 22.75 -3.18 2.12 -6.36 4.36 -7.04 4.99 -1.56 1.37 -7.48 4.67 -15.08 8.41 -3.18 1.56 -5.92 3.05 -6.11 3.43 -0.25 0.31 -1.06 0.56 -1.87 0.56 -0.81 0 -1.68 0.31 -1.87 0.62 -0.19 0.37 -0.81 0.62 -1.37 0.62 -0.50 0 -1.81 0.37 -2.87 0.87 -3.12 1.43 -14.02 4.55 -18.51 5.36 -2.24 0.37 -4.61 1 -5.30 1.37 -1.99 1.12 -32.47 1.25 -39.45 0.19z m-40.45 -191.51 c3.18 -2.68 7.04 -5.86 8.60 -7.04 1.56 -1.18 6.11 -4.61 10.03 -7.73 12.22 -9.54 27.11 -20.69 30.41 -22.62 1.99 -1.25 11.84 -8.29 11.84 -8.48 0 -0.56 -8.41 -18.63 -10.03 -21.44 -4.92 -8.79 -10.41 -16.33 -16.08 -22 -8.91 -8.91 -15.77 -12.46 -23.87 -12.59 -4.18 -0.06 -4.67 0.06 -10.03 2.68 -6.42 3.12 -11.78 12.96 -15.14 27.73 -1.37 5.92 -1.87 26.24 -0.87 34.71 0.93 8.10 3.24 20.94 5.61 31.04 2.49 10.35 2.56 10.59 3.24 10.59 0.31 0 3.12 -2.18 6.29 -4.86z"/>
  <path d="M440.05 381.47 c-8.04 -2.99 -12.28 -8.97 -13.77 -19.51 -1.25 -8.85 1.43 -18.57 6.54 -23.81 1.31 -1.31 3.99 -3.12 5.86 -4.05 3.18 -1.43 4.24 -1.62 11.28 -1.62 7.42 0 7.91 0.06 11.03 1.81 3.68 1.99 5.11 3.80 5.61 6.98 0.75 4.42 -2.37 7.73 -7.23 7.73 -3.55 0 -5.67 -2.06 -5.67 -5.61 0 -3.99 -0.81 -4.99 -4.11 -4.99 -2.43 0 -3.18 0.31 -4.92 2.06 -2.49 2.49 -3.30 5.17 -3.80 12.59 -0.69 10.72 1.62 18.07 6.54 20.69 4.99 2.62 10.91 1.37 14.83 -3.12 1.12 -1.31 2.24 -2.31 2.56 -2.31 0.75 0 3.24 2.74 3.24 3.49 0 0.37 -0.87 1.93 -1.93 3.55 -1.43 2.24 -2.87 3.37 -6.05 4.92 -3.68 1.81 -4.74 2.06 -10.35 2.24 -5.05 0.12 -6.98 -0.12 -9.66 -1.06z"/>
  <path d="M482.74 381.10 c-3.43 -1.18 -5.42 -2.80 -7.04 -5.67 -2.99 -5.24 -2.37 -11.90 1.43 -16.39 3.68 -4.24 8.85 -6.11 20.38 -7.29 l3.68 -0.37 -0.25 -5.17 c-0.19 -4.49 -0.37 -5.42 -1.68 -6.79 -1.25 -1.31 -2.12 -1.62 -4.36 -1.62 -3.86 0 -4.55 0.62 -4.92 4.24 -0.31 3.30 -1.37 4.92 -3.55 5.11 -5.55 0.62 -8.41 -1.31 -8.41 -5.67 0 -3.49 1.93 -5.98 6.17 -7.91 4.67 -2.18 15.39 -2.68 21 -1.06 4.42 1.31 8.48 4.99 9.54 8.73 0.37 1.43 0.69 7.79 0.69 14.96 0 11.28 0.50 16.58 1.50 17.57 0.19 0.25 1.43 0.56 2.68 0.75 2.18 0.37 2.37 0.56 2.56 2.74 0.19 1.99 0 2.37 -1.43 2.93 -2.74 1.06 -9.78 1.43 -12.53 0.69 -1.37 -0.37 -3.18 -1.37 -3.99 -2.24 -1.87 -1.93 -2.80 -1.93 -5.36 0 -4.36 3.30 -10.97 4.36 -16.08 2.49z m15.02 -8.23 c2.68 -1.81 3.30 -3.55 3.30 -9.60 l0 -5.73 -3.86 0.44 c-6.42 0.62 -8.91 3.18 -8.91 9.29 0 3.37 0.19 3.80 2.12 5.55 1.68 1.50 2.37 1.75 3.99 1.37 1.12 -0.25 2.62 -0.81 3.37 -1.31z"/>
  <path d="M525.99 377.42 c0 -2.68 0.06 -2.74 2.43 -3.12 1.31 -0.19 2.68 -0.69 2.99 -1.12 0.75 -0.87 1.18 -22.93 0.93 -41.69 -0.06 -8.85 -0.31 -11.84 -1 -12.78 -0.87 -1.12 -1.81 -1.18 -19.82 -1.18 l-18.88 0 0 -2.80 0 -2.74 2.80 -0.50 c5.24 -0.87 4.99 0.62 4.99 -31.10 0 -24.43 -0.12 -27.98 -0.93 -27.98 -0.50 0 -0.93 0.37 -0.93 0.81 0 0.37 -4.74 15.08 -10.47 32.53 l-10.47 31.78 -3.99 0 -4.05 0 -3.30 -9.35 c-1.87 -5.11 -5.48 -15.08 -8.04 -22.12 -2.56 -7.04 -6.36 -17.51 -8.41 -23.37 -2.06 -5.80 -4.05 -10.84 -4.36 -11.22 -0.31 -0.37 -0.50 10.59 -0.37 28.23 l0.19 28.92 1.68 1.43 c0.87 0.75 2.93 1.62 4.49 1.81 l2.87 0.44 0 2.68 0 2.68 -4.80 0.44 c-2.62 0.19 -15.77 0.37 -29.29 0.37 l-24.49 0 0 -2.74 c0 -2.68 0 -2.68 2.56 -3.05 5.05 -0.69 4.92 -0.12 4.92 -20.69 0 -21 0.06 -20.75 -5.17 -21.31 l-2.99 -0.37 0.19 -2.56 0.19 -2.56 11.22 -0.31 c6.17 -0.19 11.40 -0.25 11.72 -0.12 0.25 0.12 0.44 10.28 0.44 22.62 0 26.92 -0.62 25.12 8.10 24.74 4.80 -0.19 5.73 -0.37 7.10 -1.68 l1.68 -1.56 -0.19 -32.03 -0.19 -32.03 -1.75 -1.50 c-1.37 -1.18 -2.43 -1.50 -5.17 -1.50 l-3.37 0 0 -3.12 0 -3.12 16.76 0 16.76 0 2.56 7.04 c1.43 3.80 5.73 15.83 9.66 26.61 3.86 10.78 7.29 19.63 7.60 19.76 0.31 0.06 1.87 -3.99 3.43 -9.04 1.62 -5.05 5.55 -17.20 8.73 -27.05 l5.80 -17.82 9.35 -0.44 c5.17 -0.19 12.53 -0.31 16.27 -0.19 l6.86 0.19 0 2.80 0 2.80 -3.68 0.37 c-2.49 0.31 -4.05 0.81 -4.99 1.75 -1.50 1.50 -1.50 1.25 -1.12 44.50 l0.12 21.06 1.56 1.50 c1.50 1.56 1.56 1.56 13.65 1.56 l12.15 0 0.19 30.16 c0.19 33.90 -0.06 32.22 4.86 33.03 2.49 0.37 2.49 0.44 2.49 3.18 l0 2.80 -14.02 0 -14.02 0 0 -2.74z"/>
  <path d="M557.78 377.17 l0 -3.24 2.12 0 c1.62 0 2.49 -0.44 3.49 -1.68 l1.37 -1.75 -0.44 -25.86 c-0.37 -19.76 -0.62 -26.05 -1.25 -26.74 -0.44 -0.44 -2.12 -1 -3.68 -1.12 l-2.87 -0.37 0 -2.68 0 -2.68 10.47 -0.19 c5.73 -0.12 10.59 0.06 10.78 0.37 0.25 0.25 0.56 13.71 0.69 29.91 0.19 16.14 0.50 29.79 0.75 30.35 0.56 1.25 3.05 2.43 5.05 2.43 1.43 0 1.56 0.25 1.56 2.80 l0 2.80 -7.35 0 c-4.11 0 -10.41 0.19 -14.02 0.44 l-6.67 0.37 0 -3.18z"/>
  <path d="M600.90 379.23 c-4.92 -1.06 -7.48 -2.56 -9.29 -5.30 -2.56 -3.74 -1.43 -9.04 2.24 -10.53 3.43 -1.43 4.55 -0.81 5.80 3.37 1.31 4.49 3.18 6.29 6.98 6.86 5.30 0.81 9.72 -1.81 9.72 -5.80 0 -2.99 -2.62 -5.24 -9.04 -7.54 -13.09 -4.74 -16.76 -8.29 -16.83 -16.33 0 -3.49 0.25 -4.55 1.87 -7.17 1.18 -1.81 3.05 -3.74 4.86 -4.86 2.74 -1.68 3.37 -1.81 11.53 -2.12 9.72 -0.31 12.15 0.19 15.08 3.12 1.56 1.50 1.87 2.37 1.87 4.80 0 3.61 -1.75 5.61 -5.48 6.11 -2.06 0.25 -2.62 0.12 -3.49 -1.12 -0.56 -0.81 -1 -2.06 -1 -2.80 0 -0.75 -0.56 -2.06 -1.31 -2.99 -1.12 -1.43 -1.68 -1.62 -5.17 -1.62 -3.05 0 -4.18 0.25 -5.24 1.25 -1.87 1.81 -2.24 3.86 -1.12 6.17 1.18 2.24 1.81 2.62 8.91 5.11 12.78 4.55 16.39 8.16 16.39 16.58 0 6.61 -4.49 12.09 -11.47 14.21 -4.55 1.37 -11.40 1.62 -15.83 0.62z"/>
  <path d="M228.03 346.01 c0.81 -1.50 7.29 -7.60 8.10 -7.60 1.06 0 0.81 0.44 -1.56 3.12 -1.62 1.81 -1.99 2.49 -1.25 2.49 1.81 0 1.06 1.12 -1.50 2.12 -3.43 1.37 -4.55 1.31 -3.80 -0.12z"/>
  <path d="M250.66 324.38 c1.93 -1.87 3.93 -3.43 4.49 -3.43 1.50 0 -0.56 2.18 -3.80 4.18 -1.50 0.87 -2.68 1.81 -2.68 2.12 0 0.31 -0.37 0.56 -0.75 0.56 -0.44 0 0.75 -1.56 2.74 -3.43z"/>
  <path d="M288.55 294.22 c0 -0.75 8.04 -7.54 8.85 -7.54 0.31 0 1.18 -0.75 1.93 -1.62 0.81 -0.93 1.93 -1.56 2.56 -1.43 0.87 0.19 0.56 0.69 -1.56 2.24 -1.50 1.06 -3.74 2.93 -4.99 4.11 -2.87 2.68 -6.79 5.11 -6.79 4.24z"/>
  <path d="M407.40 255.89 c-3.12 -1.12 -3.99 -1.93 -4.80 -4.49 -1.87 -5.55 2.06 -10.22 8.54 -10.22 8.35 0 10.66 11.47 2.93 14.71 -2.56 1.06 -3.61 1.06 -6.67 0z"/>
  <path d="M282.94 195.63 c0 -0.37 -0.56 -0.56 -1.25 -0.37 -0.81 0.19 -1.12 0.06 -0.81 -0.37 0.25 -0.44 0 -0.50 -0.69 -0.25 -0.62 0.25 -0.93 0.19 -0.69 -0.19 0.50 -0.81 2.37 -0.81 4.36 0.12 1.12 0.50 1.37 0.87 0.81 1.25 -1.12 0.69 -1.75 0.62 -1.75 -0.19z"/>
  <path d="M323.70 190.39 c0.87 -0.69 1.62 -1.62 1.62 -1.99 0 -0.37 0.50 -1.06 1.06 -1.50 0.69 -0.62 0.87 -0.62 0.56 -0.06 -1.12 1.87 2.56 -0.31 6.05 -3.55 2.43 -2.31 2.99 -3.37 1.25 -2.74 -0.62 0.25 -0.87 0.12 -0.62 -0.25 0.25 -0.37 0.12 -0.81 -0.31 -0.93 -0.37 -0.12 0.50 -1.37 1.93 -2.68 1.43 -1.31 2.49 -2.74 2.31 -3.18 -0.19 -0.50 0.25 -0.69 1.25 -0.56 0.81 0.06 1.68 -0.12 1.87 -0.37 0.19 -0.31 0 -0.56 -0.37 -0.56 -0.44 0 -0.31 -0.44 0.25 -1 1.18 -1.12 1.18 -1.25 0.37 -2.74 -0.44 -0.75 -0.37 -1.87 0.19 -3.55 0.87 -2.68 0.87 -5.30 -0.12 -7.79 -0.50 -1.31 -0.44 -1.93 0.25 -2.62 0.56 -0.50 0.75 -1.37 0.50 -1.99 -0.25 -0.75 -0.19 -0.93 0.31 -0.62 0.50 0.31 0.75 -0.31 0.81 -1.93 0.12 -3.30 -0.06 -4.49 -1 -7.85 -0.25 -1 -0.19 -2.06 0.12 -2.37 0.37 -0.37 1.12 1 2.12 3.61 1.31 3.68 1.50 5.30 1.50 12.03 -0.06 6.92 -0.25 8.35 -1.81 12.78 -0.93 2.74 -2.68 6.61 -3.86 8.54 -2.37 3.86 -8.29 10.72 -8.85 10.22 -0.12 -0.19 -1.62 0.87 -3.24 2.31 -1.62 1.50 -3.55 2.68 -4.36 2.68 -1.37 0 -1.37 -0.06 0.25 -1.31z"/>
  <path d="M265.30 187.09 c-3.80 -2.99 -9.60 -10.53 -8.73 -11.40 0.37 -0.37 1.18 0.31 2.37 2.24 1 1.56 2.24 2.99 2.74 3.18 1.50 0.56 7.73 7.54 7.10 7.91 -0.31 0.19 -1.87 -0.69 -3.49 -1.93z"/>
  <path d="M338.41 171.57 c0 -0.31 0.56 -1.12 1.25 -1.75 0.69 -0.62 1.25 -1 1.25 -0.81 0 0.19 -0.56 0.93 -1.25 1.75 -0.69 0.81 -1.25 1.18 -1.25 0.81z"/>
  <path d="M252.84 168.95 c-2.43 -5.92 -3.05 -19.13 -1.37 -27.17 1.62 -7.79 4.42 -13.84 5.73 -12.53 0.25 0.25 -0.06 1.25 -0.62 2.24 -0.62 1 -1.25 2.99 -1.43 4.49 -0.19 1.50 -0.75 3.93 -1.31 5.48 -0.50 1.56 -1.06 4.67 -1.25 7.04 -0.31 3.55 -0.19 4.42 0.81 5.55 0.69 0.75 0.81 1.12 0.44 0.87 -0.56 -0.31 -0.81 0 -0.81 1 0 1.12 0.12 1.25 0.62 0.50 0.87 -1.37 0.81 1.56 -0.06 3.18 -0.50 0.93 -0.44 1.50 0.19 2.24 0.44 0.56 0.87 1.62 0.93 2.31 0.06 0.75 0.31 2.49 0.50 3.86 0.31 1.99 0.19 2.68 -0.50 2.93 -0.69 0.25 -1.25 -0.37 -1.87 -1.99z"/>
  <path d="M258.01 126.01 c0 -1.87 7.60 -10.78 8.41 -9.97 0.19 0.19 -1 1.99 -2.68 3.99 -1.68 2.06 -3.37 4.30 -3.80 5.11 -0.69 1.31 -1.93 1.87 -1.93 0.87z"/>
  <path d="M283.56 112.55 c0.50 -0.50 2.06 -1.12 3.43 -1.37 l2.49 -0.44 -1.18 1.37 c-0.81 0.87 -1.93 1.31 -3.43 1.31 -1.93 0 -2.06 -0.12 -1.31 -0.87z"/>
 </g>
</svg>